<svg xmlns="http://www.w3.org/2000/svg" xmlns:xlink="http://www.w3.org/1999/xlink" width="128" height="128" viewBox="0 0 128 128">
  <defs>
    <rect id="visual-emptystate-bannerset-a" width="128" height="128"/>
  </defs>
  <g fill="none" fill-rule="evenodd">
    <mask id="visual-emptystate-bannerset-b" fill="#fff">
      <use xlink:href="#visual-emptystate-bannerset-a"/>
    </mask>
    <use fill="#D8D8D8" opacity="0" xlink:href="#visual-emptystate-bannerset-a"/>
    <g mask="url(#visual-emptystate-bannerset-b)">
      <rect width="9" height="9" x=".5" y="18.5" stroke="#5E769C" rx="1"/>
      <rect width="9" height="9" x=".5" y="114.5" stroke="#5E769C" rx="1"/>
      <rect width="9" height="9" x="100.5" y=".5" stroke="#9BAEC8" rx="1"/>
      <circle cx="23" cy="12" r="4.5" stroke="#CDD6E3"/>
      <circle cx="111" cy="123" r="4.5" stroke="#9BAEC8"/>
      <path stroke="#5E769C" d="M123,95.118034 L118.89093,103.336174 C118.814194,103.489645 118.820568,103.5 118.995398,103.5 L127.004602,103.5 C127.178308,103.5 127.185372,103.488778 127.10907,103.336174 L123,95.118034 Z"/>
      <path stroke="#7C95B7" d="M123,1.11803399 L118.89093,9.33617351 C118.814194,9.48964521 118.820568,9.5 118.995398,9.5 L127.004602,9.5 C127.178308,9.5 127.185372,9.48877757 127.10907,9.33617351 L123,1.11803399 Z"/>
      <path stroke="#CDD6E3" d="M17 119.118034L12.8909302 127.336174C12.8141944 127.489645 12.8205679 127.5 12.9953976 127.5L21.0046024 127.5C21.1783078 127.5 21.1853718 127.488778 21.1090698 127.336174L17 119.118034zM125.274861 121.131077L124.840401 118.597983 126.680802 116.804035 124.13743 116.434461 123 114.129776 121.86257 116.434461 119.319198 116.804035 121.159599 118.597983 120.725139 121.131077 123 119.935112 125.274861 121.131077z"/>
      <path stroke="#7C95B7" d="M10.2748607 108.131077L9.84040101 105.597983 11.680802 103.804035 9.13743037 103.434461 8 101.129776 6.86256963 103.434461 4.31919799 103.804035 6.15959899 105.597983 5.72513925 108.131077 8 106.935112 10.2748607 108.131077zM121.274861 26.1310772L120.840401 23.5979825 122.680802 21.8040349 120.13743 21.4344614 119 19.1297757 117.86257 21.4344614 115.319198 21.8040349 117.159599 23.5979825 116.725139 26.1310772 119 24.9351121 121.274861 26.1310772zM7.27486075 8.13107721L6.84040101 5.59798254 8.68080201 3.80403493 6.13743037 3.4344614 5 1.12977573 3.86256963 3.4344614 1.31919799 3.80403493 3.15959899 5.59798254 2.72513925 8.13107721 5 6.93511213 7.27486075 8.13107721z"/>
    </g>
    <g mask="url(#visual-emptystate-bannerset-b)">
      <g transform="translate(24 15)">
        <rect width="78" height="97" x="1" y="1" fill="#CDD6E3" stroke="#5E769C" stroke-width="2" rx="4"/>
        <g transform="matrix(1 0 0 -1 18 36)">
          <path fill="#7C95B7" stroke="#5E769C" d="M6 10.6927322C9.34574279 10.6927322 11.5 9.04345859 11.5 6.165199 11.5 3.03340236 9.03448118.5 6 .5 2.96551882.5.5 3.03340236.5 6.165199.5 9.04345859 2.65425721 10.6927322 6 10.6927322zM38 10.6927322C41.3457428 10.6927322 43.5 9.04345859 43.5 6.165199 43.5 3.03340236 41.0344812.5 38 .5 34.9655188.5 32.5 3.03340236 32.5 6.165199 32.5 9.04345859 34.6542572 10.6927322 38 10.6927322z"/>
        </g>
        <path stroke="#5E769C" stroke-linecap="round" stroke-width="2" d="M27,53 C31.1703538,49 35.3407077,47 39.5110615,47 C43.6814153,47 47.8517692,49 52.022123,53"/>
      </g>
    </g>
    <rect width="14" height="35" x="77" y="80" fill="#5E769C" mask="url(#visual-emptystate-bannerset-b)" rx="2"/>
    <rect width="22" height="19" x="93" y="80" fill="#5E769C" mask="url(#visual-emptystate-bannerset-b)" rx="2"/>
    <rect width="22" height="14" x="93" y="101" fill="#5E769C" mask="url(#visual-emptystate-bannerset-b)" rx="2"/>
    <rect width="12" height="33" x="79" y="82" fill="#9BAEC8" stroke="#5E769C" stroke-width="2" mask="url(#visual-emptystate-bannerset-b)" rx="2"/>
    <rect width="20" height="17" x="95" y="82" fill="#9BAEC8" stroke="#5E769C" stroke-width="2" mask="url(#visual-emptystate-bannerset-b)" rx="2"/>
    <rect width="20" height="12" x="95" y="103" fill="#9BAEC8" stroke="#5E769C" stroke-width="2" mask="url(#visual-emptystate-bannerset-b)" rx="2"/>
  </g>
</svg>
